<mxfile host="app.diagrams.net" modified="2021-05-27T03:13:45.448Z" agent="5.0 (Windows NT 10.0; WOW64) AppleWebKit/537.36 (KHTML, like Gecko) Chrome/70.0.3538.25 Safari/537.36 Core/1.70.3870.400 QQBrowser/10.8.4405.400" etag="HgTzcChyarbSIr0PpElU" version="14.7.2" type="github">
  <diagram id="T51t9eW_9UwbqFa1eaOi" name="Page-1">
    <mxGraphModel dx="1984" dy="611" grid="1" gridSize="10" guides="1" tooltips="1" connect="1" arrows="1" fold="1" page="1" pageScale="1" pageWidth="827" pageHeight="1169" math="0" shadow="0">
      <root>
        <mxCell id="0" />
        <mxCell id="1" parent="0" />
        <mxCell id="XTLYALUPvkwXILoR0wDb-1" value="开始" style="rounded=1;whiteSpace=wrap;html=1;" vertex="1" parent="1">
          <mxGeometry x="330" y="30" width="90" height="40" as="geometry" />
        </mxCell>
        <mxCell id="XTLYALUPvkwXILoR0wDb-2" value="" style="endArrow=classic;html=1;exitX=0.5;exitY=1;exitDx=0;exitDy=0;" edge="1" parent="1" source="XTLYALUPvkwXILoR0wDb-1">
          <mxGeometry width="50" height="50" relative="1" as="geometry">
            <mxPoint x="360" y="140" as="sourcePoint" />
            <mxPoint x="375" y="110" as="targetPoint" />
          </mxGeometry>
        </mxCell>
        <mxCell id="XTLYALUPvkwXILoR0wDb-3" value="1900≤year≤2100&lt;br&gt;1≤mouth≤12&lt;br&gt;1≤day≤31" style="rhombus;whiteSpace=wrap;html=1;" vertex="1" parent="1">
          <mxGeometry x="285" y="180" width="180" height="80" as="geometry" />
        </mxCell>
        <mxCell id="XTLYALUPvkwXILoR0wDb-5" value="输入year，mouth，day" style="shape=parallelogram;perimeter=parallelogramPerimeter;whiteSpace=wrap;html=1;fixedSize=1;" vertex="1" parent="1">
          <mxGeometry x="290" y="110" width="165" height="30" as="geometry" />
        </mxCell>
        <mxCell id="XTLYALUPvkwXILoR0wDb-11" value="" style="endArrow=classic;html=1;exitX=0.5;exitY=1;exitDx=0;exitDy=0;" edge="1" parent="1">
          <mxGeometry width="50" height="50" relative="1" as="geometry">
            <mxPoint x="374.5" y="140" as="sourcePoint" />
            <mxPoint x="374.5" y="180" as="targetPoint" />
          </mxGeometry>
        </mxCell>
        <mxCell id="XTLYALUPvkwXILoR0wDb-12" value="" style="endArrow=classic;html=1;exitX=0;exitY=0.5;exitDx=0;exitDy=0;entryX=0.5;entryY=0;entryDx=0;entryDy=0;" edge="1" parent="1" source="XTLYALUPvkwXILoR0wDb-19" target="XTLYALUPvkwXILoR0wDb-20">
          <mxGeometry width="50" height="50" relative="1" as="geometry">
            <mxPoint x="50" y="360" as="sourcePoint" />
            <mxPoint x="50" y="400" as="targetPoint" />
            <Array as="points">
              <mxPoint x="50" y="320" />
            </Array>
          </mxGeometry>
        </mxCell>
        <mxCell id="XTLYALUPvkwXILoR0wDb-14" value="" style="endArrow=classic;html=1;exitX=0.5;exitY=1;exitDx=0;exitDy=0;" edge="1" parent="1" source="XTLYALUPvkwXILoR0wDb-17">
          <mxGeometry width="50" height="50" relative="1" as="geometry">
            <mxPoint x="899.5" y="390" as="sourcePoint" />
            <mxPoint x="900" y="1040" as="targetPoint" />
          </mxGeometry>
        </mxCell>
        <mxCell id="XTLYALUPvkwXILoR0wDb-15" value="" style="endArrow=classic;html=1;exitX=1;exitY=0.5;exitDx=0;exitDy=0;" edge="1" parent="1" source="XTLYALUPvkwXILoR0wDb-19" target="XTLYALUPvkwXILoR0wDb-29">
          <mxGeometry width="50" height="50" relative="1" as="geometry">
            <mxPoint x="320" y="340" as="sourcePoint" />
            <mxPoint x="590" y="440" as="targetPoint" />
            <Array as="points">
              <mxPoint x="690" y="320" />
            </Array>
          </mxGeometry>
        </mxCell>
        <mxCell id="XTLYALUPvkwXILoR0wDb-16" value="" style="endArrow=classic;html=1;exitX=1;exitY=0.5;exitDx=0;exitDy=0;entryX=0.5;entryY=0;entryDx=0;entryDy=0;" edge="1" parent="1" source="XTLYALUPvkwXILoR0wDb-3" target="XTLYALUPvkwXILoR0wDb-17">
          <mxGeometry width="50" height="50" relative="1" as="geometry">
            <mxPoint x="390" y="260" as="sourcePoint" />
            <mxPoint x="610" y="290" as="targetPoint" />
            <Array as="points">
              <mxPoint x="900" y="220" />
            </Array>
          </mxGeometry>
        </mxCell>
        <mxCell id="XTLYALUPvkwXILoR0wDb-48" value="否" style="edgeLabel;html=1;align=center;verticalAlign=middle;resizable=0;points=[];" vertex="1" connectable="0" parent="XTLYALUPvkwXILoR0wDb-16">
          <mxGeometry x="-0.7191" relative="1" as="geometry">
            <mxPoint x="-7" y="-10" as="offset" />
          </mxGeometry>
        </mxCell>
        <mxCell id="XTLYALUPvkwXILoR0wDb-17" value="超出范围" style="shape=parallelogram;perimeter=parallelogramPerimeter;whiteSpace=wrap;html=1;fixedSize=1;" vertex="1" parent="1">
          <mxGeometry x="840" y="300" width="120" height="50" as="geometry" />
        </mxCell>
        <mxCell id="XTLYALUPvkwXILoR0wDb-18" value="" style="endArrow=classic;html=1;exitX=0;exitY=0.5;exitDx=0;exitDy=0;" edge="1" parent="1" source="XTLYALUPvkwXILoR0wDb-3" target="XTLYALUPvkwXILoR0wDb-19">
          <mxGeometry width="50" height="50" relative="1" as="geometry">
            <mxPoint x="390" y="260" as="sourcePoint" />
            <mxPoint x="-60" y="340" as="targetPoint" />
            <Array as="points">
              <mxPoint x="195" y="220" />
            </Array>
          </mxGeometry>
        </mxCell>
        <mxCell id="XTLYALUPvkwXILoR0wDb-19" value="mouth为1-11" style="rhombus;whiteSpace=wrap;html=1;" vertex="1" parent="1">
          <mxGeometry x="120" y="290" width="150" height="60" as="geometry" />
        </mxCell>
        <mxCell id="XTLYALUPvkwXILoR0wDb-20" value="year/4==0&lt;br&gt;或mouth=2" style="rhombus;whiteSpace=wrap;html=1;" vertex="1" parent="1">
          <mxGeometry x="-20" y="400" width="140" height="70" as="geometry" />
        </mxCell>
        <mxCell id="XTLYALUPvkwXILoR0wDb-21" value="" style="endArrow=classic;html=1;exitX=0;exitY=0.5;exitDx=0;exitDy=0;" edge="1" parent="1" source="XTLYALUPvkwXILoR0wDb-20">
          <mxGeometry width="50" height="50" relative="1" as="geometry">
            <mxPoint x="-10" y="440" as="sourcePoint" />
            <mxPoint x="-80" y="510" as="targetPoint" />
            <Array as="points">
              <mxPoint x="-80" y="435" />
            </Array>
          </mxGeometry>
        </mxCell>
        <mxCell id="XTLYALUPvkwXILoR0wDb-22" value="mouth" style="rhombus;whiteSpace=wrap;html=1;" vertex="1" parent="1">
          <mxGeometry x="-150" y="510" width="140" height="60" as="geometry" />
        </mxCell>
        <mxCell id="XTLYALUPvkwXILoR0wDb-23" value="" style="endArrow=classic;html=1;" edge="1" parent="1">
          <mxGeometry width="50" height="50" relative="1" as="geometry">
            <mxPoint x="-150" y="540" as="sourcePoint" />
            <mxPoint x="-210" y="620" as="targetPoint" />
            <Array as="points">
              <mxPoint x="-210" y="540" />
            </Array>
          </mxGeometry>
        </mxCell>
        <mxCell id="XTLYALUPvkwXILoR0wDb-26" value="46911的30日或者1357810的31日" style="rhombus;whiteSpace=wrap;html=1;" vertex="1" parent="1">
          <mxGeometry x="240" y="520" width="160" height="60" as="geometry" />
        </mxCell>
        <mxCell id="XTLYALUPvkwXILoR0wDb-28" value="" style="endArrow=classic;html=1;exitX=1;exitY=0.5;exitDx=0;exitDy=0;entryX=0.5;entryY=0;entryDx=0;entryDy=0;" edge="1" parent="1" source="XTLYALUPvkwXILoR0wDb-20" target="XTLYALUPvkwXILoR0wDb-26">
          <mxGeometry width="50" height="50" relative="1" as="geometry">
            <mxPoint x="120" y="430" as="sourcePoint" />
            <mxPoint x="280" y="510" as="targetPoint" />
            <Array as="points">
              <mxPoint x="320" y="435" />
            </Array>
          </mxGeometry>
        </mxCell>
        <mxCell id="XTLYALUPvkwXILoR0wDb-29" value="day=31" style="rhombus;whiteSpace=wrap;html=1;" vertex="1" parent="1">
          <mxGeometry x="620" y="400" width="140" height="60" as="geometry" />
        </mxCell>
        <mxCell id="XTLYALUPvkwXILoR0wDb-30" value="" style="endArrow=classic;html=1;exitX=0;exitY=0.5;exitDx=0;exitDy=0;" edge="1" parent="1">
          <mxGeometry width="50" height="50" relative="1" as="geometry">
            <mxPoint x="240" y="550" as="sourcePoint" />
            <mxPoint x="180" y="640" as="targetPoint" />
            <Array as="points">
              <mxPoint x="180" y="550" />
            </Array>
          </mxGeometry>
        </mxCell>
        <mxCell id="XTLYALUPvkwXILoR0wDb-31" value="" style="endArrow=classic;html=1;exitX=1;exitY=0.5;exitDx=0;exitDy=0;" edge="1" parent="1">
          <mxGeometry width="50" height="50" relative="1" as="geometry">
            <mxPoint x="394" y="550" as="sourcePoint" />
            <mxPoint x="434" y="720" as="targetPoint" />
            <Array as="points">
              <mxPoint x="434" y="550" />
            </Array>
          </mxGeometry>
        </mxCell>
        <mxCell id="XTLYALUPvkwXILoR0wDb-32" value="" style="rhombus;whiteSpace=wrap;html=1;" vertex="1" parent="1">
          <mxGeometry x="-40" y="710" width="140" height="60" as="geometry" />
        </mxCell>
        <mxCell id="XTLYALUPvkwXILoR0wDb-33" value="" style="endArrow=classic;html=1;exitX=0;exitY=0.5;exitDx=0;exitDy=0;" edge="1" parent="1">
          <mxGeometry width="50" height="50" relative="1" as="geometry">
            <mxPoint x="-40" y="740" as="sourcePoint" />
            <mxPoint x="-100" y="815" as="targetPoint" />
            <Array as="points">
              <mxPoint x="-100" y="740" />
            </Array>
          </mxGeometry>
        </mxCell>
        <mxCell id="XTLYALUPvkwXILoR0wDb-34" value="" style="endArrow=classic;html=1;exitX=1;exitY=0.5;exitDx=0;exitDy=0;" edge="1" parent="1">
          <mxGeometry width="50" height="50" relative="1" as="geometry">
            <mxPoint x="100" y="740" as="sourcePoint" />
            <mxPoint x="140" y="910" as="targetPoint" />
            <Array as="points">
              <mxPoint x="140" y="740" />
            </Array>
          </mxGeometry>
        </mxCell>
        <mxCell id="XTLYALUPvkwXILoR0wDb-35" value="" style="endArrow=classic;html=1;exitX=1;exitY=0.5;exitDx=0;exitDy=0;" edge="1" parent="1">
          <mxGeometry width="50" height="50" relative="1" as="geometry">
            <mxPoint x="-10" y="540" as="sourcePoint" />
            <mxPoint x="30" y="710" as="targetPoint" />
            <Array as="points">
              <mxPoint x="30" y="540" />
            </Array>
          </mxGeometry>
        </mxCell>
        <mxCell id="XTLYALUPvkwXILoR0wDb-36" value="" style="endArrow=classic;html=1;exitX=0;exitY=0.5;exitDx=0;exitDy=0;" edge="1" parent="1">
          <mxGeometry width="50" height="50" relative="1" as="geometry">
            <mxPoint x="620" y="430" as="sourcePoint" />
            <mxPoint x="560" y="530" as="targetPoint" />
            <Array as="points">
              <mxPoint x="560" y="430" />
            </Array>
          </mxGeometry>
        </mxCell>
        <mxCell id="XTLYALUPvkwXILoR0wDb-37" value="" style="endArrow=classic;html=1;exitX=1;exitY=0.5;exitDx=0;exitDy=0;" edge="1" parent="1">
          <mxGeometry width="50" height="50" relative="1" as="geometry">
            <mxPoint x="760" y="430" as="sourcePoint" />
            <mxPoint x="800" y="520" as="targetPoint" />
            <Array as="points">
              <mxPoint x="800" y="430" />
            </Array>
          </mxGeometry>
        </mxCell>
        <mxCell id="XTLYALUPvkwXILoR0wDb-39" value="day+=1" style="rounded=0;whiteSpace=wrap;html=1;" vertex="1" parent="1">
          <mxGeometry x="740" y="520" width="110" height="50" as="geometry" />
        </mxCell>
        <mxCell id="XTLYALUPvkwXILoR0wDb-40" value="" style="endArrow=classic;html=1;" edge="1" parent="1">
          <mxGeometry width="50" height="50" relative="1" as="geometry">
            <mxPoint x="800" y="570" as="sourcePoint" />
            <mxPoint x="800" y="660" as="targetPoint" />
          </mxGeometry>
        </mxCell>
        <mxCell id="XTLYALUPvkwXILoR0wDb-41" value="输出year，mouth，day" style="shape=parallelogram;perimeter=parallelogramPerimeter;whiteSpace=wrap;html=1;fixedSize=1;" vertex="1" parent="1">
          <mxGeometry x="715" y="660" width="160" height="40" as="geometry" />
        </mxCell>
        <mxCell id="XTLYALUPvkwXILoR0wDb-42" value="" style="endArrow=classic;html=1;" edge="1" parent="1">
          <mxGeometry width="50" height="50" relative="1" as="geometry">
            <mxPoint x="800" y="700" as="sourcePoint" />
            <mxPoint x="800" y="1040" as="targetPoint" />
          </mxGeometry>
        </mxCell>
        <mxCell id="XTLYALUPvkwXILoR0wDb-43" value="year+=1&lt;br&gt;mouth=1&lt;br&gt;day=1" style="rounded=0;whiteSpace=wrap;html=1;" vertex="1" parent="1">
          <mxGeometry x="510" y="520" width="110" height="50" as="geometry" />
        </mxCell>
        <mxCell id="XTLYALUPvkwXILoR0wDb-44" value="输出year，mouth，day" style="shape=parallelogram;perimeter=parallelogramPerimeter;whiteSpace=wrap;html=1;fixedSize=1;" vertex="1" parent="1">
          <mxGeometry x="485" y="660" width="160" height="40" as="geometry" />
        </mxCell>
        <mxCell id="XTLYALUPvkwXILoR0wDb-45" value="" style="endArrow=classic;html=1;" edge="1" parent="1">
          <mxGeometry width="50" height="50" relative="1" as="geometry">
            <mxPoint x="564.33" y="570" as="sourcePoint" />
            <mxPoint x="564.33" y="660" as="targetPoint" />
          </mxGeometry>
        </mxCell>
        <mxCell id="XTLYALUPvkwXILoR0wDb-46" value="" style="endArrow=classic;html=1;" edge="1" parent="1">
          <mxGeometry width="50" height="50" relative="1" as="geometry">
            <mxPoint x="564.33" y="700" as="sourcePoint" />
            <mxPoint x="564.33" y="1040" as="targetPoint" />
          </mxGeometry>
        </mxCell>
        <mxCell id="XTLYALUPvkwXILoR0wDb-47" value="是" style="text;html=1;align=center;verticalAlign=middle;resizable=0;points=[];autosize=1;strokeColor=none;" vertex="1" parent="1">
          <mxGeometry x="225" y="200" width="30" height="20" as="geometry" />
        </mxCell>
        <mxCell id="XTLYALUPvkwXILoR0wDb-49" value="是" style="text;html=1;align=center;verticalAlign=middle;resizable=0;points=[];autosize=1;strokeColor=none;" vertex="1" parent="1">
          <mxGeometry x="590" y="410" width="30" height="20" as="geometry" />
        </mxCell>
        <mxCell id="XTLYALUPvkwXILoR0wDb-50" value="是" style="text;html=1;align=center;verticalAlign=middle;resizable=0;points=[];autosize=1;strokeColor=none;" vertex="1" parent="1">
          <mxGeometry x="90" y="300" width="30" height="20" as="geometry" />
        </mxCell>
        <mxCell id="XTLYALUPvkwXILoR0wDb-51" value="否" style="edgeLabel;html=1;align=center;verticalAlign=middle;resizable=0;points=[];" vertex="1" connectable="0" parent="1">
          <mxGeometry x="290" y="250" as="geometry">
            <mxPoint x="11" y="51" as="offset" />
          </mxGeometry>
        </mxCell>
        <mxCell id="XTLYALUPvkwXILoR0wDb-52" value="否" style="edgeLabel;html=1;align=center;verticalAlign=middle;resizable=0;points=[];" vertex="1" connectable="0" parent="1">
          <mxGeometry x="130" y="420" as="geometry" />
        </mxCell>
        <mxCell id="XTLYALUPvkwXILoR0wDb-53" value="是" style="text;html=1;align=center;verticalAlign=middle;resizable=0;points=[];autosize=1;strokeColor=none;" vertex="1" parent="1">
          <mxGeometry x="-60" y="410" width="30" height="20" as="geometry" />
        </mxCell>
        <mxCell id="XTLYALUPvkwXILoR0wDb-54" value="mouth=1&lt;br&gt;day=1" style="rounded=0;whiteSpace=wrap;html=1;" vertex="1" parent="1">
          <mxGeometry x="130" y="640" width="110" height="50" as="geometry" />
        </mxCell>
        <mxCell id="XTLYALUPvkwXILoR0wDb-55" value="day+=1" style="rounded=0;whiteSpace=wrap;html=1;" vertex="1" parent="1">
          <mxGeometry x="375" y="720" width="110" height="50" as="geometry" />
        </mxCell>
        <mxCell id="XTLYALUPvkwXILoR0wDb-56" value="" style="endArrow=classic;html=1;" edge="1" parent="1">
          <mxGeometry width="50" height="50" relative="1" as="geometry">
            <mxPoint x="184.32999999999993" y="690" as="sourcePoint" />
            <mxPoint x="184.32999999999993" y="1030" as="targetPoint" />
          </mxGeometry>
        </mxCell>
        <mxCell id="XTLYALUPvkwXILoR0wDb-57" value="" style="endArrow=classic;html=1;" edge="1" parent="1">
          <mxGeometry width="50" height="50" relative="1" as="geometry">
            <mxPoint x="429.9999999999999" y="770" as="sourcePoint" />
            <mxPoint x="429.9999999999999" y="1110" as="targetPoint" />
          </mxGeometry>
        </mxCell>
      </root>
    </mxGraphModel>
  </diagram>
</mxfile>
